<svg width="251" height="80" viewBox="0 0 251 80" fill="none" xmlns="http://www.w3.org/2000/svg">
<path d="M175.767 76L177.691 66.354H178.12L177.093 71.502L176.729 72.529L176.664 73.608L176.183 76H175.767ZM179.316 76.039C178.727 76.039 178.22 75.935 177.795 75.727C177.379 75.5103 177.063 75.2027 176.846 74.804C176.629 74.3967 176.517 73.907 176.508 73.335C176.508 72.7457 176.595 72.1997 176.768 71.697C176.95 71.1943 177.206 70.7567 177.535 70.384C177.864 70.0113 178.259 69.721 178.718 69.513C179.177 69.305 179.684 69.201 180.239 69.201C180.828 69.201 181.34 69.3137 181.773 69.539C182.206 69.7643 182.54 70.085 182.774 70.501C183.017 70.9083 183.138 71.4023 183.138 71.983C183.138 72.5637 183.043 73.101 182.852 73.595C182.661 74.089 182.397 74.5223 182.059 74.895C181.721 75.259 181.318 75.5407 180.85 75.74C180.382 75.9393 179.871 76.039 179.316 76.039ZM179.342 75.649C179.992 75.649 180.568 75.493 181.071 75.181C181.574 74.8603 181.972 74.427 182.267 73.881C182.562 73.3263 182.709 72.698 182.709 71.996C182.709 71.2333 182.484 70.644 182.033 70.228C181.591 69.812 180.967 69.604 180.161 69.604C179.52 69.604 178.943 69.76 178.432 70.072C177.929 70.384 177.531 70.8173 177.236 71.372C176.95 71.918 176.807 72.5463 176.807 73.257C176.807 74.011 177.028 74.6003 177.47 75.025C177.921 75.441 178.545 75.649 179.342 75.649ZM183.596 78.561C183.301 78.561 183.019 78.509 182.751 78.405C182.482 78.301 182.274 78.1537 182.127 77.963L182.413 77.651C182.56 77.833 182.738 77.9673 182.946 78.054C183.145 78.1407 183.379 78.184 183.648 78.184C183.951 78.184 184.237 78.0973 184.506 77.924C184.774 77.7507 185.065 77.43 185.377 76.962L186.105 75.844L186.196 75.74L190.421 69.253H190.889L185.754 77.105C185.502 77.4777 185.264 77.768 185.039 77.976C184.822 78.1927 184.597 78.3443 184.363 78.431C184.129 78.5177 183.873 78.561 183.596 78.561ZM186.079 76.156L184.298 69.253H184.74L186.391 75.714L186.079 76.156ZM195.823 71.463H200.841L200.75 71.853H195.745L195.823 71.463ZM194.991 76H194.549L196.369 66.9H202.323L202.245 67.303H196.72L194.991 76ZM204.511 76.052C203.791 76.052 203.167 75.935 202.639 75.701C202.11 75.4583 201.724 75.155 201.482 74.791L201.781 74.479C201.989 74.817 202.331 75.0987 202.808 75.324C203.284 75.5407 203.861 75.649 204.537 75.649C205.49 75.649 206.235 75.428 206.773 74.986C207.31 74.5353 207.579 73.9157 207.579 73.127C207.579 72.5203 207.358 72.048 206.916 71.71C206.482 71.3633 205.746 71.19 204.706 71.19H202.769L204.095 66.9H208.801L208.723 67.303H204.225L204.485 67.108L203.25 70.995L203.081 70.787H204.784C205.91 70.787 206.729 70.995 207.241 71.411C207.761 71.8183 208.021 72.386 208.021 73.114C208.021 73.712 207.878 74.232 207.592 74.674C207.306 75.116 206.898 75.4583 206.37 75.701C205.85 75.935 205.23 76.052 204.511 76.052ZM209.305 76.039C209.201 76.039 209.105 76 209.019 75.922C208.932 75.8353 208.889 75.7357 208.889 75.623C208.889 75.493 208.932 75.389 209.019 75.311C209.105 75.2243 209.209 75.181 209.331 75.181C209.443 75.181 209.539 75.2243 209.617 75.311C209.703 75.389 209.747 75.4887 209.747 75.61C209.747 75.688 209.725 75.7617 209.682 75.831C209.647 75.9003 209.595 75.9523 209.526 75.987C209.465 76.0217 209.391 76.039 209.305 76.039Z" fill="black"/>
<path d="M70.445 22.065C69.8037 22.065 69.3097 21.8917 68.963 21.545C68.6163 21.1983 68.443 20.7087 68.443 20.076V13.667H69.366V20.024C69.366 20.4227 69.4657 20.7303 69.665 20.947C69.873 21.1637 70.1677 21.272 70.549 21.272C70.9563 21.272 71.2943 21.155 71.563 20.921L71.888 21.584C71.706 21.7487 71.485 21.87 71.225 21.948C70.9737 22.026 70.7137 22.065 70.445 22.065ZM67.221 15.942V15.175H71.446V15.942H67.221ZM77.0523 15.11C77.6069 15.11 78.0923 15.2183 78.5083 15.435C78.9329 15.643 79.2623 15.9637 79.4963 16.397C79.7389 16.8303 79.8603 17.3763 79.8603 18.035V22H78.9373V18.126C78.9373 17.4067 78.7553 16.865 78.3913 16.501C78.0359 16.1283 77.5333 15.942 76.8833 15.942C76.3979 15.942 75.9733 16.0417 75.6093 16.241C75.2539 16.4317 74.9766 16.7133 74.7773 17.086C74.5866 17.45 74.4913 17.892 74.4913 18.412V22H73.5683V12.354H74.4913V17.047L74.3093 16.696C74.5259 16.202 74.8726 15.8163 75.3493 15.539C75.8259 15.253 76.3936 15.11 77.0523 15.11ZM85.2524 22.065C84.5417 22.065 83.9177 21.9177 83.3804 21.623C82.8431 21.3197 82.4227 20.908 82.1194 20.388C81.8161 19.8593 81.6644 19.257 81.6644 18.581C81.6644 17.905 81.8074 17.307 82.0934 16.787C82.3881 16.267 82.7867 15.8597 83.2894 15.565C83.8007 15.2617 84.3727 15.11 85.0054 15.11C85.6467 15.11 86.2144 15.2573 86.7084 15.552C87.2111 15.838 87.6054 16.2453 87.8914 16.774C88.1774 17.294 88.3204 17.8963 88.3204 18.581C88.3204 18.6243 88.3161 18.672 88.3074 18.724C88.3074 18.7673 88.3074 18.815 88.3074 18.867H82.3664V18.178H87.8134L87.4494 18.451C87.4494 17.957 87.3411 17.5193 87.1244 17.138C86.9164 16.748 86.6304 16.4447 86.2664 16.228C85.9024 16.0113 85.4821 15.903 85.0054 15.903C84.5374 15.903 84.1171 16.0113 83.7444 16.228C83.3717 16.4447 83.0814 16.748 82.8734 17.138C82.6654 17.528 82.5614 17.9743 82.5614 18.477V18.62C82.5614 19.14 82.6741 19.5993 82.8994 19.998C83.1334 20.388 83.4541 20.6957 83.8614 20.921C84.2774 21.1377 84.7497 21.246 85.2784 21.246C85.6944 21.246 86.0801 21.1723 86.4354 21.025C86.7994 20.8777 87.1114 20.6523 87.3714 20.349L87.8914 20.947C87.5881 21.311 87.2067 21.5883 86.7474 21.779C86.2967 21.9697 85.7984 22.065 85.2524 22.065ZM97.7485 22.078C97.0638 22.078 96.4311 21.9653 95.8505 21.74C95.2698 21.506 94.7671 21.181 94.3425 20.765C93.9178 20.349 93.5841 19.8593 93.3415 19.296C93.1075 18.7327 92.9905 18.1173 92.9905 17.45C92.9905 16.7827 93.1075 16.1673 93.3415 15.604C93.5841 15.0407 93.9178 14.551 94.3425 14.135C94.7758 13.719 95.2828 13.3983 95.8635 13.173C96.4441 12.939 97.0768 12.822 97.7615 12.822C98.4201 12.822 99.0398 12.9347 99.6205 13.16C100.201 13.3767 100.691 13.706 101.089 14.148L100.478 14.759C100.106 14.3777 99.6941 14.1047 99.2435 13.94C98.7928 13.7667 98.3075 13.68 97.7875 13.68C97.2415 13.68 96.7345 13.7753 96.2665 13.966C95.7985 14.148 95.3911 14.4123 95.0445 14.759C94.6978 15.097 94.4248 15.4957 94.2255 15.955C94.0348 16.4057 93.9395 16.904 93.9395 17.45C93.9395 17.996 94.0348 18.4987 94.2255 18.958C94.4248 19.4087 94.6978 19.8073 95.0445 20.154C95.3911 20.492 95.7985 20.7563 96.2665 20.947C96.7345 21.129 97.2415 21.22 97.7875 21.22C98.3075 21.22 98.7928 21.1333 99.2435 20.96C99.6941 20.7867 100.106 20.5093 100.478 20.128L101.089 20.739C100.691 21.181 100.201 21.5147 99.6205 21.74C99.0398 21.9653 98.4158 22.078 97.7485 22.078ZM106.928 22.078C106.243 22.078 105.606 21.9653 105.017 21.74C104.436 21.506 103.929 21.181 103.496 20.765C103.071 20.3403 102.737 19.8507 102.495 19.296C102.261 18.7327 102.144 18.1173 102.144 17.45C102.144 16.7827 102.261 16.1717 102.495 15.617C102.737 15.0537 103.071 14.564 103.496 14.148C103.929 13.7233 104.436 13.3983 105.017 13.173C105.597 12.939 106.234 12.822 106.928 12.822C107.612 12.822 108.245 12.939 108.826 13.173C109.406 13.3983 109.909 13.719 110.334 14.135C110.767 14.551 111.101 15.0407 111.335 15.604C111.577 16.1673 111.699 16.7827 111.699 17.45C111.699 18.1173 111.577 18.7327 111.335 19.296C111.101 19.8593 110.767 20.349 110.334 20.765C109.909 21.181 109.406 21.506 108.826 21.74C108.245 21.9653 107.612 22.078 106.928 22.078ZM106.928 21.22C107.474 21.22 107.976 21.129 108.436 20.947C108.904 20.7563 109.307 20.492 109.645 20.154C109.991 19.8073 110.26 19.4087 110.451 18.958C110.641 18.4987 110.737 17.996 110.737 17.45C110.737 16.904 110.641 16.4057 110.451 15.955C110.26 15.4957 109.991 15.097 109.645 14.759C109.307 14.4123 108.904 14.148 108.436 13.966C107.976 13.7753 107.474 13.68 106.928 13.68C106.382 13.68 105.875 13.7753 105.407 13.966C104.939 14.148 104.531 14.4123 104.185 14.759C103.847 15.097 103.578 15.4957 103.379 15.955C103.188 16.4057 103.093 16.904 103.093 17.45C103.093 17.9873 103.188 18.4857 103.379 18.945C103.578 19.4043 103.847 19.8073 104.185 20.154C104.531 20.492 104.939 20.7563 105.407 20.947C105.875 21.129 106.382 21.22 106.928 21.22ZM117.833 22.078C117.148 22.078 116.511 21.9653 115.922 21.74C115.341 21.506 114.834 21.181 114.401 20.765C113.976 20.3403 113.643 19.8507 113.4 19.296C113.166 18.7327 113.049 18.1173 113.049 17.45C113.049 16.7827 113.166 16.1717 113.4 15.617C113.643 15.0537 113.976 14.564 114.401 14.148C114.834 13.7233 115.341 13.3983 115.922 13.173C116.503 12.939 117.14 12.822 117.833 12.822C118.518 12.822 119.15 12.939 119.731 13.173C120.312 13.3983 120.814 13.719 121.239 14.135C121.672 14.551 122.006 15.0407 122.24 15.604C122.483 16.1673 122.604 16.7827 122.604 17.45C122.604 18.1173 122.483 18.7327 122.24 19.296C122.006 19.8593 121.672 20.349 121.239 20.765C120.814 21.181 120.312 21.506 119.731 21.74C119.15 21.9653 118.518 22.078 117.833 22.078ZM117.833 21.22C118.379 21.22 118.882 21.129 119.341 20.947C119.809 20.7563 120.212 20.492 120.55 20.154C120.897 19.8073 121.165 19.4087 121.356 18.958C121.547 18.4987 121.642 17.996 121.642 17.45C121.642 16.904 121.547 16.4057 121.356 15.955C121.165 15.4957 120.897 15.097 120.55 14.759C120.212 14.4123 119.809 14.148 119.341 13.966C118.882 13.7753 118.379 13.68 117.833 13.68C117.287 13.68 116.78 13.7753 116.312 13.966C115.844 14.148 115.437 14.4123 115.09 14.759C114.752 15.097 114.483 15.4957 114.284 15.955C114.093 16.4057 113.998 16.904 113.998 17.45C113.998 17.9873 114.093 18.4857 114.284 18.945C114.483 19.4043 114.752 19.8073 115.09 20.154C115.437 20.492 115.844 20.7563 116.312 20.947C116.78 21.129 117.287 21.22 117.833 21.22ZM124.76 22V12.9H125.722V21.168H130.818V22H124.76Z" fill="black"/>
<path d="M79.62 58.4202C76.26 58.4202 73.26 57.7202 70.62 56.3202C68.02 54.8802 65.98 52.9202 64.5 50.4402C63.02 47.9602 62.28 45.1402 62.28 41.9802C62.28 38.7802 63.02 35.9602 64.5 33.5202C65.98 31.0402 68.02 29.1002 70.62 27.7002C73.26 26.3002 76.26 25.6002 79.62 25.6002C82.74 25.6002 85.48 26.2402 87.84 27.5202C90.24 28.7602 92.06 30.6002 93.3 33.0402L87.54 36.4002C86.58 34.8802 85.4 33.7602 84 33.0402C82.64 32.3202 81.16 31.9602 79.56 31.9602C77.72 31.9602 76.06 32.3602 74.58 33.1602C73.1 33.9602 71.94 35.1202 71.1 36.6402C70.26 38.1202 69.84 39.9002 69.84 41.9802C69.84 44.0602 70.26 45.8602 71.1 47.3802C71.94 48.8602 73.1 50.0002 74.58 50.8002C76.06 51.6002 77.72 52.0002 79.56 52.0002C81.16 52.0002 82.64 51.6402 84 50.9202C85.4 50.2002 86.58 49.0802 87.54 47.5602L93.3 50.9202C92.06 53.3202 90.24 55.1802 87.84 56.5002C85.48 57.7802 82.74 58.4202 79.62 58.4202ZM99.7833 58.0002V25.9602H106.923V34.7802L106.083 32.2002C107.043 30.0402 108.543 28.4002 110.583 27.2802C112.663 26.1602 115.243 25.6002 118.323 25.6002V32.7402C118.003 32.6602 117.703 32.6202 117.423 32.6202C117.143 32.5802 116.863 32.5602 116.583 32.5602C113.743 32.5602 111.483 33.4002 109.803 35.0802C108.123 36.7202 107.283 39.1802 107.283 42.4602V58.0002H99.7833ZM139.453 58.4202C135.893 58.4202 132.773 57.7202 130.093 56.3202C127.453 54.8802 125.393 52.9202 123.913 50.4402C122.473 47.9602 121.753 45.1402 121.753 41.9802C121.753 38.7802 122.453 35.9602 123.853 33.5202C125.293 31.0402 127.253 29.1002 129.733 27.7002C132.253 26.3002 135.113 25.6002 138.313 25.6002C141.433 25.6002 144.213 26.2802 146.653 27.6402C149.093 29.0002 151.013 30.9202 152.413 33.4002C153.813 35.8802 154.513 38.8002 154.513 42.1602C154.513 42.4802 154.493 42.8402 154.453 43.2402C154.453 43.6402 154.433 44.0202 154.393 44.3802H127.693V39.4002H150.433L147.493 40.9602C147.533 39.1202 147.153 37.5002 146.353 36.1002C145.553 34.7002 144.453 33.6002 143.053 32.8002C141.693 32.0002 140.113 31.6002 138.313 31.6002C136.473 31.6002 134.853 32.0002 133.453 32.8002C132.093 33.6002 131.013 34.7202 130.213 36.1602C129.453 37.5602 129.073 39.2202 129.073 41.1402V42.3402C129.073 44.2602 129.513 45.9602 130.393 47.4402C131.273 48.9202 132.513 50.0602 134.113 50.8602C135.713 51.6602 137.553 52.0602 139.633 52.0602C141.433 52.0602 143.053 51.7802 144.493 51.2202C145.933 50.6602 147.213 49.7802 148.333 48.5802L152.353 53.2002C150.913 54.8802 149.093 56.1802 146.893 57.1002C144.733 57.9802 142.253 58.4202 139.453 58.4202ZM168.211 58.0002L156.451 25.9602H163.531L173.611 54.2202H170.251L180.811 25.9602H187.111L197.371 54.2202H194.071L204.451 25.9602H211.111L199.291 58.0002H192.091L182.731 32.9802H184.951L175.411 58.0002H168.211Z" fill="black"/>
<path d="M31.56 55.98L3.9 45.24V38.76L31.56 28.02V34.26L6.24 43.74V40.26L31.56 49.74V55.98Z" fill="black"/>
<path d="M36.2 69L56 12.48H62.72L42.92 69H36.2Z" fill="black"/>
<path d="M218.9 55.98V49.74L244.22 40.26V43.74L218.9 34.26V28.02L246.56 38.76V45.24L218.9 55.98Z" fill="black"/>
</svg>
