<svg width="189" height="98" viewBox="0 0 189 98" fill="none" xmlns="http://www.w3.org/2000/svg">
<path d="M36.5 17.5C2.90004 5.10003 -0.833301 44.6667 1.50003 66C10.0001 104 76.5 86 86 69C95.5 52 78.5 33 36.5 17.5Z" fill="#FAB87F" fill-opacity="0.8"/>
<path d="M123.25 37.2944C136.473 4.00937 97.0096 -0.69538 75.6253 1.11288C37.4279 8.67631 53.7879 75.5986 70.5493 85.5136C87.3106 95.4286 106.723 78.9007 123.25 37.2944Z" fill="#F87E7B" fill-opacity="0.8"/>
<path d="M138.375 87.4305C168.575 106.684 180.627 68.8133 182.878 47.4712C182.643 8.5328 113.837 11.9975 100.943 26.5918C88.0494 41.1861 100.626 63.3634 138.375 87.4305Z" fill="#B05574" fill-opacity="0.8"/>
<path d="M133.767 84L135.691 74.354H136.12L135.093 79.502L134.729 80.529L134.664 81.608L134.183 84H133.767ZM137.316 84.039C136.727 84.039 136.22 83.935 135.795 83.727C135.379 83.5103 135.063 83.2027 134.846 82.804C134.629 82.3967 134.517 81.907 134.508 81.335C134.508 80.7457 134.595 80.1997 134.768 79.697C134.95 79.1943 135.206 78.7567 135.535 78.384C135.864 78.0113 136.259 77.721 136.718 77.513C137.177 77.305 137.684 77.201 138.239 77.201C138.828 77.201 139.34 77.3137 139.773 77.539C140.206 77.7643 140.54 78.085 140.774 78.501C141.017 78.9083 141.138 79.4023 141.138 79.983C141.138 80.5637 141.043 81.101 140.852 81.595C140.661 82.089 140.397 82.5223 140.059 82.895C139.721 83.259 139.318 83.5407 138.85 83.74C138.382 83.9393 137.871 84.039 137.316 84.039ZM137.342 83.649C137.992 83.649 138.568 83.493 139.071 83.181C139.574 82.8603 139.972 82.427 140.267 81.881C140.562 81.3263 140.709 80.698 140.709 79.996C140.709 79.2333 140.484 78.644 140.033 78.228C139.591 77.812 138.967 77.604 138.161 77.604C137.52 77.604 136.943 77.76 136.432 78.072C135.929 78.384 135.531 78.8173 135.236 79.372C134.95 79.918 134.807 80.5463 134.807 81.257C134.807 82.011 135.028 82.6003 135.47 83.025C135.921 83.441 136.545 83.649 137.342 83.649ZM141.596 86.561C141.301 86.561 141.019 86.509 140.751 86.405C140.482 86.301 140.274 86.1537 140.127 85.963L140.413 85.651C140.56 85.833 140.738 85.9673 140.946 86.054C141.145 86.1407 141.379 86.184 141.648 86.184C141.951 86.184 142.237 86.0973 142.506 85.924C142.774 85.7507 143.065 85.43 143.377 84.962L144.105 83.844L144.196 83.74L148.421 77.253H148.889L143.754 85.105C143.502 85.4777 143.264 85.768 143.039 85.976C142.822 86.1927 142.597 86.3443 142.363 86.431C142.129 86.5177 141.873 86.561 141.596 86.561ZM144.079 84.156L142.298 77.253H142.74L144.391 83.714L144.079 84.156ZM153.823 79.463H158.841L158.75 79.853H153.745L153.823 79.463ZM152.991 84H152.549L154.369 74.9H160.323L160.245 75.303H154.72L152.991 84ZM162.511 84.052C161.791 84.052 161.167 83.935 160.639 83.701C160.11 83.4583 159.724 83.155 159.482 82.791L159.781 82.479C159.989 82.817 160.331 83.0987 160.808 83.324C161.284 83.5407 161.861 83.649 162.537 83.649C163.49 83.649 164.235 83.428 164.773 82.986C165.31 82.5353 165.579 81.9157 165.579 81.127C165.579 80.5203 165.358 80.048 164.916 79.71C164.482 79.3633 163.746 79.19 162.706 79.19H160.769L162.095 74.9H166.801L166.723 75.303H162.225L162.485 75.108L161.25 78.995L161.081 78.787H162.784C163.91 78.787 164.729 78.995 165.241 79.411C165.761 79.8183 166.021 80.386 166.021 81.114C166.021 81.712 165.878 82.232 165.592 82.674C165.306 83.116 164.898 83.4583 164.37 83.701C163.85 83.935 163.23 84.052 162.511 84.052ZM167.305 84.039C167.201 84.039 167.105 84 167.019 83.922C166.932 83.8353 166.889 83.7357 166.889 83.623C166.889 83.493 166.932 83.389 167.019 83.311C167.105 83.2243 167.209 83.181 167.331 83.181C167.443 83.181 167.539 83.2243 167.617 83.311C167.703 83.389 167.747 83.4887 167.747 83.61C167.747 83.688 167.725 83.7617 167.682 83.831C167.647 83.9003 167.595 83.9523 167.526 83.987C167.465 84.0217 167.391 84.039 167.305 84.039Z" fill="white"/>
<path d="M36.62 73.42C33.26 73.42 30.26 72.72 27.62 71.32C25.02 69.88 22.98 67.92 21.5 65.44C20.02 62.96 19.28 60.14 19.28 56.98C19.28 53.78 20.02 50.96 21.5 48.52C22.98 46.04 25.02 44.1 27.62 42.7C30.26 41.3 33.26 40.6 36.62 40.6C39.74 40.6 42.48 41.24 44.84 42.52C47.24 43.76 49.06 45.6 50.3 48.04L44.54 51.4C43.58 49.88 42.4 48.76 41 48.04C39.64 47.32 38.16 46.96 36.56 46.96C34.72 46.96 33.06 47.36 31.58 48.16C30.1 48.96 28.94 50.12 28.1 51.64C27.26 53.12 26.84 54.9 26.84 56.98C26.84 59.06 27.26 60.86 28.1 62.38C28.94 63.86 30.1 65 31.58 65.8C33.06 66.6 34.72 67 36.56 67C38.16 67 39.64 66.64 41 65.92C42.4 65.2 43.58 64.08 44.54 62.56L50.3 65.92C49.06 68.32 47.24 70.18 44.84 71.5C42.48 72.78 39.74 73.42 36.62 73.42ZM56.7833 73V40.96H63.9233V49.78L63.0833 47.2C64.0433 45.04 65.5433 43.4 67.5833 42.28C69.6633 41.16 72.2433 40.6 75.3233 40.6V47.74C75.0033 47.66 74.7033 47.62 74.4233 47.62C74.1433 47.58 73.8633 47.56 73.5833 47.56C70.7433 47.56 68.4833 48.4 66.8033 50.08C65.1233 51.72 64.2833 54.18 64.2833 57.46V73H56.7833ZM96.4527 73.42C92.8927 73.42 89.7727 72.72 87.0927 71.32C84.4527 69.88 82.3927 67.92 80.9127 65.44C79.4727 62.96 78.7527 60.14 78.7527 56.98C78.7527 53.78 79.4527 50.96 80.8527 48.52C82.2927 46.04 84.2527 44.1 86.7327 42.7C89.2527 41.3 92.1127 40.6 95.3127 40.6C98.4327 40.6 101.213 41.28 103.653 42.64C106.093 44 108.013 45.92 109.413 48.4C110.813 50.88 111.513 53.8 111.513 57.16C111.513 57.48 111.493 57.84 111.453 58.24C111.453 58.64 111.433 59.02 111.393 59.38H84.6927V54.4H107.433L104.493 55.96C104.533 54.12 104.153 52.5 103.353 51.1C102.553 49.7 101.453 48.6 100.053 47.8C98.6927 47 97.1127 46.6 95.3127 46.6C93.4727 46.6 91.8527 47 90.4527 47.8C89.0927 48.6 88.0127 49.72 87.2127 51.16C86.4527 52.56 86.0727 54.22 86.0727 56.14V57.34C86.0727 59.26 86.5127 60.96 87.3927 62.44C88.2727 63.92 89.5127 65.06 91.1127 65.86C92.7127 66.66 94.5527 67.06 96.6327 67.06C98.4327 67.06 100.053 66.78 101.493 66.22C102.933 65.66 104.213 64.78 105.333 63.58L109.353 68.2C107.913 69.88 106.093 71.18 103.893 72.1C101.733 72.98 99.2527 73.42 96.4527 73.42ZM125.211 73L113.451 40.96H120.531L130.611 69.22H127.251L137.811 40.96H144.111L154.371 69.22H151.071L161.451 40.96H168.111L156.291 73H149.091L139.731 47.98H141.951L132.411 73H125.211Z" fill="white"/>
<path d="M27.975 36.075C27.235 36.075 26.665 35.875 26.265 35.475C25.865 35.075 25.665 34.51 25.665 33.78V26.385H26.73V33.72C26.73 34.18 26.845 34.535 27.075 34.785C27.315 35.035 27.655 35.16 28.095 35.16C28.565 35.16 28.955 35.025 29.265 34.755L29.64 35.52C29.43 35.71 29.175 35.85 28.875 35.94C28.585 36.03 28.285 36.075 27.975 36.075ZM24.255 29.01V28.125H29.13V29.01H24.255ZM35.5988 28.05C36.2388 28.05 36.7988 28.175 37.2788 28.425C37.7688 28.665 38.1488 29.035 38.4188 29.535C38.6988 30.035 38.8388 30.665 38.8388 31.425V36H37.7738V31.53C37.7738 30.7 37.5638 30.075 37.1438 29.655C36.7338 29.225 36.1538 29.01 35.4038 29.01C34.8438 29.01 34.3538 29.125 33.9338 29.355C33.5238 29.575 33.2038 29.9 32.9738 30.33C32.7538 30.75 32.6438 31.26 32.6438 31.86V36H31.5788V24.87H32.6438V30.285L32.4338 29.88C32.6838 29.31 33.0838 28.865 33.6338 28.545C34.1838 28.215 34.8388 28.05 35.5988 28.05ZM45.0605 36.075C44.2405 36.075 43.5205 35.905 42.9005 35.565C42.2805 35.215 41.7955 34.74 41.4455 34.14C41.0955 33.53 40.9205 32.835 40.9205 32.055C40.9205 31.275 41.0855 30.585 41.4155 29.985C41.7555 29.385 42.2155 28.915 42.7955 28.575C43.3855 28.225 44.0455 28.05 44.7755 28.05C45.5155 28.05 46.1705 28.22 46.7405 28.56C47.3205 28.89 47.7755 29.36 48.1055 29.97C48.4355 30.57 48.6005 31.265 48.6005 32.055C48.6005 32.105 48.5955 32.16 48.5855 32.22C48.5855 32.27 48.5855 32.325 48.5855 32.385H41.7305V31.59H48.0155L47.5955 31.905C47.5955 31.335 47.4705 30.83 47.2205 30.39C46.9805 29.94 46.6505 29.59 46.2305 29.34C45.8105 29.09 45.3255 28.965 44.7755 28.965C44.2355 28.965 43.7505 29.09 43.3205 29.34C42.8905 29.59 42.5555 29.94 42.3155 30.39C42.0755 30.84 41.9555 31.355 41.9555 31.935V32.1C41.9555 32.7 42.0855 33.23 42.3455 33.69C42.6155 34.14 42.9855 34.495 43.4555 34.755C43.9355 35.005 44.4805 35.13 45.0905 35.13C45.5705 35.13 46.0155 35.045 46.4255 34.875C46.8455 34.705 47.2055 34.445 47.5055 34.095L48.1055 34.785C47.7555 35.205 47.3155 35.525 46.7855 35.745C46.2655 35.965 45.6905 36.075 45.0605 36.075ZM59.479 36.09C58.689 36.09 57.959 35.96 57.289 35.7C56.619 35.43 56.039 35.055 55.549 34.575C55.059 34.095 54.674 33.53 54.394 32.88C54.124 32.23 53.989 31.52 53.989 30.75C53.989 29.98 54.124 29.27 54.394 28.62C54.674 27.97 55.059 27.405 55.549 26.925C56.049 26.445 56.634 26.075 57.304 25.815C57.974 25.545 58.704 25.41 59.494 25.41C60.254 25.41 60.969 25.54 61.639 25.8C62.309 26.05 62.874 26.43 63.334 26.94L62.629 27.645C62.199 27.205 61.724 26.89 61.204 26.7C60.684 26.5 60.124 26.4 59.524 26.4C58.894 26.4 58.309 26.51 57.769 26.73C57.229 26.94 56.759 27.245 56.359 27.645C55.959 28.035 55.644 28.495 55.414 29.025C55.194 29.545 55.084 30.12 55.084 30.75C55.084 31.38 55.194 31.96 55.414 32.49C55.644 33.01 55.959 33.47 56.359 33.87C56.759 34.26 57.229 34.565 57.769 34.785C58.309 34.995 58.894 35.1 59.524 35.1C60.124 35.1 60.684 35 61.204 34.8C61.724 34.6 62.199 34.28 62.629 33.84L63.334 34.545C62.874 35.055 62.309 35.44 61.639 35.7C60.969 35.96 60.249 36.09 59.479 36.09ZM70.0705 36.09C69.2805 36.09 68.5455 35.96 67.8655 35.7C67.1955 35.43 66.6105 35.055 66.1105 34.575C65.6205 34.085 65.2355 33.52 64.9555 32.88C64.6855 32.23 64.5505 31.52 64.5505 30.75C64.5505 29.98 64.6855 29.275 64.9555 28.635C65.2355 27.985 65.6205 27.42 66.1105 26.94C66.6105 26.45 67.1955 26.075 67.8655 25.815C68.5355 25.545 69.2705 25.41 70.0705 25.41C70.8605 25.41 71.5905 25.545 72.2605 25.815C72.9305 26.075 73.5105 26.445 74.0005 26.925C74.5005 27.405 74.8855 27.97 75.1555 28.62C75.4355 29.27 75.5755 29.98 75.5755 30.75C75.5755 31.52 75.4355 32.23 75.1555 32.88C74.8855 33.53 74.5005 34.095 74.0005 34.575C73.5105 35.055 72.9305 35.43 72.2605 35.7C71.5905 35.96 70.8605 36.09 70.0705 36.09ZM70.0705 35.1C70.7005 35.1 71.2805 34.995 71.8105 34.785C72.3505 34.565 72.8155 34.26 73.2055 33.87C73.6055 33.47 73.9155 33.01 74.1355 32.49C74.3555 31.96 74.4655 31.38 74.4655 30.75C74.4655 30.12 74.3555 29.545 74.1355 29.025C73.9155 28.495 73.6055 28.035 73.2055 27.645C72.8155 27.245 72.3505 26.94 71.8105 26.73C71.2805 26.51 70.7005 26.4 70.0705 26.4C69.4405 26.4 68.8555 26.51 68.3155 26.73C67.7755 26.94 67.3055 27.245 66.9055 27.645C66.5155 28.035 66.2055 28.495 65.9755 29.025C65.7555 29.545 65.6455 30.12 65.6455 30.75C65.6455 31.37 65.7555 31.945 65.9755 32.475C66.2055 33.005 66.5155 33.47 66.9055 33.87C67.3055 34.26 67.7755 34.565 68.3155 34.785C68.8555 34.995 69.4405 35.1 70.0705 35.1ZM82.6535 36.09C81.8635 36.09 81.1285 35.96 80.4485 35.7C79.7785 35.43 79.1935 35.055 78.6935 34.575C78.2035 34.085 77.8185 33.52 77.5385 32.88C77.2685 32.23 77.1335 31.52 77.1335 30.75C77.1335 29.98 77.2685 29.275 77.5385 28.635C77.8185 27.985 78.2035 27.42 78.6935 26.94C79.1935 26.45 79.7785 26.075 80.4485 25.815C81.1185 25.545 81.8535 25.41 82.6535 25.41C83.4435 25.41 84.1735 25.545 84.8435 25.815C85.5135 26.075 86.0935 26.445 86.5835 26.925C87.0835 27.405 87.4685 27.97 87.7385 28.62C88.0185 29.27 88.1585 29.98 88.1585 30.75C88.1585 31.52 88.0185 32.23 87.7385 32.88C87.4685 33.53 87.0835 34.095 86.5835 34.575C86.0935 35.055 85.5135 35.43 84.8435 35.7C84.1735 35.96 83.4435 36.09 82.6535 36.09ZM82.6535 35.1C83.2835 35.1 83.8635 34.995 84.3935 34.785C84.9335 34.565 85.3985 34.26 85.7885 33.87C86.1885 33.47 86.4985 33.01 86.7185 32.49C86.9385 31.96 87.0485 31.38 87.0485 30.75C87.0485 30.12 86.9385 29.545 86.7185 29.025C86.4985 28.495 86.1885 28.035 85.7885 27.645C85.3985 27.245 84.9335 26.94 84.3935 26.73C83.8635 26.51 83.2835 26.4 82.6535 26.4C82.0235 26.4 81.4385 26.51 80.8985 26.73C80.3585 26.94 79.8885 27.245 79.4885 27.645C79.0985 28.035 78.7885 28.495 78.5585 29.025C78.3385 29.545 78.2285 30.12 78.2285 30.75C78.2285 31.37 78.3385 31.945 78.5585 32.475C78.7885 33.005 79.0985 33.47 79.4885 33.87C79.8885 34.26 80.3585 34.565 80.8985 34.785C81.4385 34.995 82.0235 35.1 82.6535 35.1ZM90.6465 36V25.5L91.7565 25.5V35.04H97.6365V36H90.6465Z" fill="white"/>
</svg>
